<svg id="Capa_1" enable-background="new 0 0 511.999 511.999" height="512" viewBox="0 0 511.999 511.999" width="512" xmlns="http://www.w3.org/2000/svg"><g><path d="m286.018 7.5c-10.758 0-20.941 2.462-30.018 6.851-9.077-4.389-19.259-6.851-30.017-6.851-38.134 0-69.049 30.914-69.049 69.048v273.615h198.132v-273.615c0-38.134-30.914-69.048-69.048-69.048z" fill="#c77e67"/><path d="m286.018 7.5c-4.394 0-8.69.417-12.856 1.202 32.019 6.001 56.256 34.085 56.256 67.846v273.615h25.649v-273.615c-.001-38.134-30.915-69.048-69.049-69.048z" fill="#be694e"/><path d="m298.112 261.73c-12.969-6.006-27.192-7.808-42.112-7.808s-29.145 1.803-42.114 7.808c-66.36 15.026-115.91 74.353-115.91 145.258v10.679c0 22.963 18.615 41.577 41.577 41.577h7.419c-.386 10.74-.629 22.026-.723 33.893-.05 6.249 3.509 11.362 7.924 11.362h203.652c4.416 0 7.974-5.113 7.924-11.362 24.258 11.077 48.272-17.752 48.272-54.315v-31.834c.002-70.905-49.548-130.233-115.909-145.258z" fill="#f4daa7"/><path d="m298.112 261.73c-12.97-6.01-27.192-7.808-42.112-7.808-4.34 0-8.62.158-12.82.528 10.26.88 20.09 3.02 29.28 7.28 66.36 15.03 115.92 74.35 115.92 145.26v31.83c0 4.057-.295 8.017-.853 11.837-1.727 11.811-14.302 18.918-25.204 14.058-.077-.034-17.892-7.985-27.442-12.195l-7.728 17.253c-1.294 2.889.008 6.277 2.907 7.549 8.406 3.689 35.011 15.505 35.691 15.815 24.26 11.07 48.272-17.745 48.272-54.315v-31.834c0-70.909-49.551-130.228-115.911-145.258z" fill="#f1cd88"/><path d="m365.751 493.138-.001.139c0 6.178-3.544 11.223-7.923 11.223h-203.653c-4.411 0-7.977-5.12-7.924-11.362.18-22.595.901-43.094 2.117-61.691 93.755-55.715 138.332-121.226 138.332-163.624v-10.271c44.735 12.46 77.676 62.748 79.052 235.586z" fill="#df646e"/><path d="m286.698 257.551v10.271c0 1.191-.041 2.404-.111 3.631 30.571 25.493 51.226 85.596 52.309 221.685v.138c0 6.177-3.544 11.223-7.923 11.223h26.854c4.379 0 7.923-5.045 7.923-11.223l.001-.139c-1.375-172.837-34.317-223.125-79.053-235.586z" fill="#dc4955"/><path d="m397.621 417.821-34.804-14.213c-2.847-1.163-6.103.142-7.36 2.949l-28.304 63.216c-1.294 2.889.008 6.277 2.907 7.549 9.24 4.055 28.134 12.364 35.691 15.815 24.258 11.077 48.272-17.752 48.272-54.315z" fill="#f4daa7"/><path d="m414.023 438.822-16.402-21.001-9.241-3.774v24.773c0 4.057-.295 8.017-.853 11.837-1.727 11.811-14.302 18.918-25.204 14.058-.077-.034-17.892-7.985-27.442-12.195l-7.728 17.253c-1.294 2.889.008 6.277 2.907 7.549 9.24 4.055 28.134 12.364 35.691 15.815 6.104 2.787 12.192 3.045 17.887 1.292 16.935-5.216 30.385-28.239 30.385-55.607z" fill="#f1cd88"/><g fill="#faa68e"><path d="m256.138 380.058-29.482 19.877-45.285 29.069v-38.219l14.418-9.256c4.898-3.142 7.86-8.568 7.86-14.387v-51.452c0-3.385 2.771-6.125 6.167-6.082 1.904.021 4.115.042 6.379.032 9.066-.053 16.449 7.278 16.449 16.343v27.493c0 3.734 3.882 6.199 7.257 4.612l2.983-1.396c1.851-.867 3.798-1.28 5.712-1.28 5.215 0 10.187 3.036 12.387 8.145 2.559 5.943.528 12.872-4.845 16.501z"/><path d="m350.95 416.627-12.228 27.302-56.086-30.613c-7.225-3.946-9.88-13.011-5.934-20.236 1.968-3.618 5.226-6.093 8.886-7.161 3.66-1.079 7.733-.751 11.34 1.217l18.808 10.271-1.629-14.122c-.793-6.866 4.126-13.064 10.991-13.858 2.666-.307 5.226.243 7.415 1.438 3.438 1.883 5.945 5.353 6.432 9.552l3.66 31.65z"/><path d="m225.302 200.616v72.495c0 13.68 17.018 22.535 30.698 22.535s30.698-8.854 30.698-22.535c0-25.039 0-72.495 0-72.495z"/></g><path d="m225.302 256.638c8.968 4.292 19.011 6.699 29.617 6.699h2.162c10.606 0 20.649-2.407 29.617-6.699 0-25.094 0-56.022 0-56.022h-61.396z" fill="#e09380"/><path d="m254.919 241.603h2.162c37.939 0 68.695-30.756 68.695-68.695v-43.165h-139.552v43.165c0 37.939 30.756 68.695 68.695 68.695z" fill="#ac583e"/><path d="m325.776 129.742c0 31.618-13.753 51.191-30.922 62.065-12.472 7.891-26.742 11.192-38.854 11.192s-26.393-3.301-38.854-11.192c-17.169-10.874-30.922-30.447-30.922-62.065 0-18.861 2.839-34.518 7.86-47.19 5.531-13.957 19.2-23.132 34.205-22.669 9.379.289 18.804 2.228 27.329 5.63.243.106.518.106.762 0 8.238-3.287 17.316-5.208 26.381-5.595 15.7-.67 29.87 8.858 35.502 23.528 4.805 12.513 7.513 27.877 7.513 46.296z" fill="#faa68e"/><path d="m179.6 380.082-42.905 23.823 2.858 55.339h28.732c7.227 0 13.086-5.859 13.086-13.086v-65.034c0-.909-.976-1.483-1.771-1.042z" fill="#f4daa7"/><g><path d="m421.52 406.989c0-13.516-1.729-26.938-5.138-39.898-1.054-4.006-5.155-6.404-9.161-5.345-4.006 1.054-6.399 5.155-5.346 9.161 3.081 11.714 4.645 23.853 4.645 36.082v31.831c0 19.864-7.965 38.331-19.821 45.951-3.758 2.415-7.579 3.485-11.418 3.222-2.135-.147-4.278-.701-6.417-1.678-7.418-3.387-25.23-11.225-34.126-15.131l23.057-51.493c.006-.013.01-.027.016-.041l3.78-8.443 33.194 13.557c3.833 1.564 8.213-.273 9.779-4.107 1.566-3.835-.273-8.213-4.108-9.779l-32.24-13.167c-5.84-52.255-16.683-89.522-33.663-113.96 5.448 3.074 10.681 6.504 15.668 10.266.221.187.45.364.692.525 15.733 12.022 28.967 27.36 38.632 45.21 1.357 2.507 3.937 3.93 6.602 3.93 1.206 0 2.429-.291 3.564-.905 3.643-1.973 4.997-6.524 3.024-10.167-10.158-18.762-23.887-35.011-40.165-47.992v-208.068c0-42.21-34.34-76.55-76.55-76.55-10.451 0-20.532 2.054-30.02 6.111-9.489-4.057-19.57-6.111-30.021-6.111-42.21 0-76.55 34.34-76.55 76.55v54.88c0 4.143 3.358 7.5 7.5 7.5s7.5-3.357 7.5-7.5v-54.88c0-33.938 27.611-61.55 61.55-61.55 9.378 0 18.38 2.053 26.756 6.102 2.062.998 4.467.998 6.528 0 8.376-4.049 17.378-6.102 26.756-6.102 33.939 0 61.55 27.611 61.55 61.55v197.486c-24.549-15.246-41.74-17.392-50.15-20.763-.859-.345-1.725-.678-2.601-.995-.069-.025-.483-.168-.619-.217v-12.648c23.293-13.05 39.079-37.962 39.079-66.503v-43.169c0-19.097-2.824-35.902-8.391-49.951-6.715-16.948-23.362-27.949-41.409-27.402-9.364.288-18.809 2.096-27.479 5.246-8.67-3.15-18.115-4.958-27.479-5.246-18.056-.552-34.693 10.455-41.409 27.402-5.567 14.049-8.391 30.855-8.391 49.951v43.169c0 28.541 15.786 53.454 39.079 66.503v12.652c-2.171.766-4.291 1.605-6.333 2.525-16.669 3.865-32.57 10.509-47.038 19.505v-107.666c0-4.143-3.358-7.5-7.5-7.5s-7.5 3.357-7.5 7.5v118.253c-8.876 7.07-17.016 15.109-24.211 24.006-22.402 27.698-34.739 62.609-34.739 98.302v10.68c0 26.949 21.835 48.894 48.746 49.071-.214 7.46-.409 17.454-.476 26.339-.045 5.721 1.964 11.054 5.513 14.632 2.744 2.766 6.262 4.288 9.907 4.288h203.66c2.073 0 4.399-.548 6.488-1.697.039-.022.078-.045.117-.068 2.888-1.625 5.263-4.285 6.815-7.622 8.395 1.384 16.571-.729 23.561-5.221 16.226-10.428 26.709-33.418 26.709-58.571v-31.832zm-65.467 90.01h-127.311c11.909-8.79 22.782-17.915 32.471-27.274 2.979-2.878 3.061-7.626.183-10.605-2.877-2.979-7.625-3.063-10.605-.184-13.715 13.249-29.97 26.046-48.326 38.063h-47.682c-.748-.949-1.043-2.601-1.033-3.804.066-8.688.224-17.493.49-26.453h14.046c11.351 0 20.586-9.234 20.586-20.585v-13.057s41.931-26.917 41.977-26.948l29.483-19.877c8.349-5.636 11.521-16.439 7.539-25.686-2.01-4.667-5.586-8.324-9.955-10.488 19.705-24.467 31.869-48.686 35.283-70.187.655-2.195 1-4.47 1-6.803v-4.883c9.452 4.298 17.714 10.888 24.89 19.935-2.554 14.645-8.871 31.255-18.385 48.274-2.021 3.616-.729 8.186 2.887 10.207 1.158.647 2.414.954 3.653.954 2.628 0 5.18-1.384 6.553-3.841 7.331-13.114 12.821-25.768 16.441-37.824 10.904 21.728 18.355 52.037 22.914 92.089-1.662 1.152-3.076 2.698-4.092 4.586l-2.666-23.054c-.747-6.443-4.59-12.15-10.289-15.271-3.634-1.984-7.741-2.783-11.869-2.306-5.311.613-10.063 3.256-13.383 7.44-3.268 4.119-4.763 9.249-4.226 14.47l-6.109-3.336c-5.26-2.87-11.316-3.519-17.033-1.832-5.758 1.681-10.507 5.508-13.366 10.766-2.868 5.252-3.521 11.309-1.837 17.053 1.685 5.747 5.506 10.492 10.76 13.361l50.003 27.293-8.738 19.516c-1.45 3.237-1.546 6.841-.271 10.148 1.274 3.306 3.763 5.91 7.008 7.335 4.986 2.186 19.259 8.456 29.009 12.808zm-125.065-132.89c3.658 2.322 8.183 2.606 12.092.771l2.984-1.397c3.115-1.461 6.716-.01 8.029 3.039 1.134 2.634.229 5.712-2.153 7.32l-29.409 19.826-33.661 21.608v-20.395l10.967-7.041c7.082-4.543 11.31-12.28 11.31-20.699v-50.02c1.585.015 5.125.018 5.143.018 2.356 0 4.573.913 6.245 2.576 1.681 1.672 2.607 3.897 2.607 6.267v27.493c.001 4.335 2.186 8.31 5.846 10.634zm107.198 62.666-2.993 6.682-48.963-26.726c-1.734-.946-2.996-2.515-3.553-4.415-.557-1.901-.342-3.905.613-5.655.943-1.732 2.505-2.992 4.418-3.55.688-.203 1.391-.304 2.089-.304 1.221 0 2.431.307 3.535.908l18.808 10.271c2.459 1.344 5.461 1.203 7.785-.362s3.581-4.296 3.26-7.079l-1.629-14.124c-.153-1.329.219-2.638 1.049-3.684.831-1.047 2.021-1.708 3.349-1.861 1.037-.119 2.063.077 2.956.565 1.452.795 2.394 2.193 2.584 3.835l3.66 31.65c.28 2.42 1.717 4.553 3.854 5.721l2.263 1.236zm-137.129-341.46c4.289-10.823 14.726-17.948 26.153-17.948.282 0 .565.004.848.013 8.49.262 17.041 2.019 24.734 5.081 2.047.837 4.366.839 6.414 0 7.692-3.062 16.245-4.819 24.735-5.081 11.75-.372 22.606 6.845 27.001 17.936 4.867 12.282 7.335 27.229 7.335 44.426 0 24.841-9.163 40.102-19.149 49.359-6.931-15.368-23.842-26.201-43.128-26.201s-36.197 10.833-43.128 26.199c-9.988-9.257-19.15-24.519-19.15-49.358 0-17.195 2.468-32.143 7.335-44.426zm85.433 102.649c-9.247 4.82-20.1 7.535-30.49 7.535-10.397 0-21.25-2.715-30.491-7.533 3.508-11.554 15.99-20.065 30.491-20.065 14.5-.001 26.982 8.51 30.49 20.063zm-92.235-7.088c5.8 7.649 12.486 13.194 18.714 17.161.015.01.125.082.164.107 12.582 7.967 27.805 12.354 42.866 12.354 15.05 0 30.272-4.387 42.867-12.355.037-.024.149-.096.167-.109 6.227-3.967 12.911-9.51 18.71-17.157-3.92 29.987-29.62 53.222-60.664 53.222h-2.16c-31.044 0-56.745-23.235-60.664-53.223zm60.664 68.223h2.16c7.691 0 15.115-1.156 22.12-3.285v22.005c0 2.735-.219 5.571-.633 8.487-2.68 6.785-13.444 11.843-22.568 11.843-10.508 0-23.2-6.709-23.2-15.04v-27.295c7.006 2.129 14.43 3.285 22.121 3.285zm-149.44 168.57v-10.68c0-32.27 11.152-63.832 31.401-88.869 19.96-24.679 47.897-42.107 78.665-49.076.516-.116 1.019-.288 1.499-.511.249-.115.504-.219.754-.331v4.907c0 8.846 4.829 16.895 13.597 22.665 7.018 4.618 16.215 7.375 24.602 7.375 5.063 0 10.418-1.01 15.414-2.822-6.597 15.16-17.228 31.447-31.27 47.633v-21.979c0-6.393-2.497-12.396-7.032-16.904-7.637-7.595-15.087-6.88-23.203-6.97-3.656-.024-7.116 1.348-9.722 3.921-2.604 2.572-4.038 6.003-4.038 9.661v51.452c0 3.285-1.648 6.303-4.411 8.075l-3.65 2.343c-.729-1.614-1.932-3.005-3.499-3.927-2.642-1.554-5.95-1.598-8.628-.107l-42.905 23.823c-3.622 2.011-4.927 6.576-2.916 10.197 2.011 3.622 6.577 4.928 10.198 2.916l33.535-18.62v37.164 17.152c0 3.08-2.505 5.585-5.585 5.585h-21.268c-.016 0-.032-.002-.049-.002h-7.418c-18.786 0-34.071-15.284-34.071-34.071z"/><path d="m286.629 138.56c4.142 0 7.5-3.357 7.5-7.5v-2.531c0-4.143-3.358-7.5-7.5-7.5s-7.5 3.357-7.5 7.5v2.531c0 4.142 3.358 7.5 7.5 7.5z"/><path d="m225.37 138.56c4.142 0 7.5-3.357 7.5-7.5v-2.531c0-4.143-3.358-7.5-7.5-7.5s-7.5 3.357-7.5 7.5v2.531c0 4.142 3.358 7.5 7.5 7.5z"/></g></g></svg>